<svg version="1.2" xmlns="http://www.w3.org/2000/svg" viewBox="0 0 205 202" width="205" height="202">
	<style>
		.s0 { fill: #dcaa93 } 
		.s1 { fill: #3a2f2a } 
	</style>
	<path fill-rule="evenodd" class="s0" d="m103.5 192c-50 0-90.5-39.8-90.5-89 0-49.2 40.5-89 90.5-89 50 0 90.5 39.8 90.5 89 0 49.2-40.5 89-90.5 89z"/>
	<path fill-rule="evenodd" class="s0" d="m103.5 192c-50 0-90.5-39.8-90.5-89 0-49.2 40.5-89 90.5-89 50 0 90.5 39.8 90.5 89 0 49.2-40.5 89-90.5 89z"/>
	<path class="s1" d="m85.1 113.7c0-18.1-26.3-10.2-26.3-22.8 0-5.3 4.1-8 9.4-7.9 5.9 0.1 9 3.8 9.4 7.1h7c-0.8-7.4-6.9-12.5-16.2-12.5-9.6 0-16.1 5.4-16.1 13.5 0 18.1 26.4 9.7 26.4 22.9 0 4.6-3.7 8.1-9.8 8.1-6.8 0-9.7-4.1-10.1-8.1h-6.8c0.1 8 7.1 13.5 16.9 13.5 10.5 0 16.2-6.9 16.2-13.8zm15.5 9.4c0-2.5-1.9-4.4-4.2-4.4-2.4 0-4.3 1.9-4.3 4.4 0 2.4 1.9 4.3 4.3 4.3 2.3 0 4.2-1.9 4.2-4.3zm6.4-20.5c0 14.6 10.7 24.8 24.4 24.8 10.5 0 18.9-5.2 22.6-14.6h-7.6c-2.7 5.8-7.9 9.1-15 9.1-10.3 0-17.9-7.4-17.9-19.3 0-12 7.6-19.4 17.9-19.4 7.1 0 12.3 3.3 15 9.1h7.6c-3.7-9.4-12.1-14.7-22.6-14.7-13.7 0-24.4 10.3-24.4 25z"/>
</svg>